<svg id="flat" xmlns="http://www.w3.org/2000/svg" width="65.451" height="65.45" viewBox="0 0 65.451 65.45">
  <path id="Path_36" data-name="Path 36" d="M3,10H68.451V55.138H3Z" transform="translate(-3 -2.101)" fill="#394d5c"/>
  <path id="Path_37" data-name="Path 37" d="M21,50H45.826v4.514H21Z" transform="translate(-0.688 3.038)" fill="#7d8d9c"/>
  <path id="Path_38" data-name="Path 38" d="M65.065,57.385,48.138,54H23.312L6.385,57.385C4.209,57.748,3,58.565,3,60.771V61.9l20.312-3.385H48.138L68.451,61.9V60.771C68.451,58.565,67.242,57.748,65.065,57.385Z" transform="translate(-3 3.551)" fill="#394d5c"/>
  <path id="Path_39" data-name="Path 39" d="M7,14H63.423V50.111H7Z" transform="translate(-2.486 -1.587)" fill="#f4f4e6"/>
  <path id="Path_40" data-name="Path 40" d="M22.642,43.028,17,40.771V34l5.642,2.257Z" transform="translate(-1.202 0.982)" fill="#ffd782"/>
  <path id="Path_41" data-name="Path 41" d="M22,43.028l5.642-2.257V34L22,36.257Z" transform="translate(-0.559 0.982)" fill="#f9bb4b"/>
  <path id="Path_42" data-name="Path 42" d="M17,34.257,22.642,32l5.642,2.257-5.642,2.257Z" transform="translate(-1.202 0.725)" fill="#ad6327"/>
  <path id="Path_43" data-name="Path 43" d="M44.514,38.771,40,36.514V32l4.514,2.257Z" transform="translate(1.753 0.725)" fill="#8ec13f"/>
  <path id="Path_44" data-name="Path 44" d="M44,38.771l4.514-2.257V32L44,34.257Z" transform="translate(2.267 0.725)" fill="#55b56a"/>
  <path id="Path_45" data-name="Path 45" d="M40,32.257,44.514,30l4.514,2.257-4.514,2.257Z" transform="translate(1.753 0.468)" fill="#3e8051"/>
  <g id="Group_7" data-name="Group 7" transform="translate(9.028 15.798)">
    <path id="Path_46" data-name="Path 46" d="M54.771,44.028H48V41.771h4.514V35h2.257Z" transform="translate(-6.247 -14.688)" fill="#32b1cc"/>
    <path id="Path_47" data-name="Path 47" d="M47.468,29.948l-.84-2.1,4.934-1.973V21h2.257v6.406Z" transform="translate(-6.423 -16.486)" fill="#32b1cc"/>
    <path id="Path_48" data-name="Path 48" d="M19.583,31.579,11,27.9V17h2.257v9.412L20.472,29.5Z" transform="translate(-11 -17)" fill="#32b1cc"/>
  </g>
  <path id="Path_49" data-name="Path 49" d="M31,34h2.257v2.257H31Z" transform="translate(0.597 0.982)" fill="#e97424"/>
  <path id="Path_50" data-name="Path 50" d="M12,40h2.257v2.257H12Z" transform="translate(-1.844 1.753)" fill="#e97424"/>
  <path id="Path_51" data-name="Path 51" d="M34,38h2.257v2.257H34Z" transform="translate(0.982 1.496)" fill="#e97424"/>
  <path id="Path_52" data-name="Path 52" d="M16,6.385,34.055,3,52.111,6.385,34.055,10.9Z" transform="translate(-1.33 -3)" fill="#b11e48"/>
  <path id="Path_53" data-name="Path 53" d="M34.055,33.083,16,26.312V6l18.055,4.514Z" transform="translate(-1.33 -2.615)" fill="#f98c96"/>
  <path id="Path_54" data-name="Path 54" d="M32,33.083l18.055-6.771V6L32,10.514Z" transform="translate(0.725 -2.615)" fill="#da1c4b"/>
</svg>
