<svg id="movie" xmlns="http://www.w3.org/2000/svg" width="65.451" height="65.451" viewBox="0 0 65.451 65.451">
  <path id="Path_20" data-name="Path 20" d="M65.451,32.725A32.725,32.725,0,1,1,32.725,0,32.725,32.725,0,0,1,65.451,32.725Zm0,0" fill="#ff7591"/>
  <path id="Path_21" data-name="Path 21" d="M232.492,430.605H238.5v7.814h-6.011Zm0,0" transform="translate(-202.772 -375.56)" fill="#3b3b3b"/>
  <path id="Path_22" data-name="Path 22" d="M71.537,70.884v29.872a32.34,32.34,0,0,1-2.672,6.928,32.789,32.789,0,0,1-6.258,8.364h-45.5a32.674,32.674,0,0,1-8.929-15.293V70.884a2.318,2.318,0,0,1,2.317-2.317H69.219a2.318,2.318,0,0,1,2.318,2.317Zm0,0" transform="translate(-7.131 -59.801)" fill="#4a4a4a"/>
  <path id="Path_23" data-name="Path 23" d="M87.089,89.465v36.446A32.7,32.7,0,0,1,83.3,131.6H32.856a32.726,32.726,0,0,1-3.786-5.693V89.465Zm0,0" transform="translate(-25.354 -78.028)" fill="#ffd861"/>
  <path id="Path_24" data-name="Path 24" d="M168.256,475.615a32.781,32.781,0,0,1-30.139,0,86.89,86.89,0,0,1,15.07-1.126A86.872,86.872,0,0,1,168.256,475.615Zm0,0" transform="translate(-120.461 -413.833)" fill="#4a4a4a"/>
  <path id="Path_25" data-name="Path 25" d="M30.8,21.11,72.822.015l3.435,6.843-42.025,21.1Zm0,0" transform="translate(-26.86 -0.013)" fill="#3b3b3b"/>
  <path id="Path_26" data-name="Path 26" d="M121.062,167.261,88.6,177.46H74.975l-6.7-21.323,44.86-14.1Zm0,0" transform="translate(-59.549 -123.884)" fill="#3b3b3b"/>
  <g id="Group_6" data-name="Group 6" transform="translate(5.662 2.922)">
    <path id="Path_27" data-name="Path 27" d="M260.082,26.317l6.9-3.462,7.53,4.787-6.9,3.462Zm0,0" transform="translate(-232.497 -22.855)" fill="#efefef"/>
    <path id="Path_28" data-name="Path 28" d="M152.188,80.478l6.9-3.462,7.53,4.787-6.9,3.462Zm0,0" transform="translate(-138.395 -70.092)" fill="#efefef"/>
    <path id="Path_29" data-name="Path 29" d="M44.293,134.642l6.9-3.462,7.53,4.787-6.9,3.462Zm0,0" transform="translate(-44.293 -117.333)" fill="#efefef"/>
    <path id="Path_30" data-name="Path 30" d="M57.676,122.376l44.861-14.1,2.3,7.3-44.861,14.1Zm0,0" transform="translate(-55.965 -97.358)" fill="#efefef"/>
  </g>
  <path id="Path_31" data-name="Path 31" d="M320.379,123.812l7.361-2.313,2.076-8.678-7.361,2.313Zm0,0" transform="translate(-279.424 -98.398)" fill="#3b3b3b"/>
  <path id="Path_32" data-name="Path 32" d="M205.2,160l7.361-2.313,2.076-8.678-7.362,2.313Zm0,0" transform="translate(-178.971 -129.959)" fill="#3b3b3b"/>
  <path id="Path_33" data-name="Path 33" d="M90.031,196.19l7.361-2.313,2.076-8.678-7.361,2.313Zm0,0" transform="translate(-78.522 -161.525)" fill="#3b3b3b"/>
  <path id="Path_34" data-name="Path 34" d="M122.449,268.248l20.13-6.326.723,2.3-20.13,6.326Zm0,0" transform="translate(-106.796 -228.439)" fill="#efefef"/>
  <path id="Path_35" data-name="Path 35" d="M136.871,293.422l29.792-9.363.723,2.3-29.792,9.362Zm0,0" transform="translate(-119.374 -247.747)" fill="#efefef"/>
</svg>
